<!DOCTYPE svg PUBLIC "-//W3C//DTD SVG 1.1//EN" "http://www.w3.org/Graphics/SVG/1.1/DTD/svg11.dtd">
<!-- Uploaded to: SVG Repo, www.svgrepo.com, Transformed by: SVG Repo Mixer Tools -->
<svg fill="#efe6e6" width="800px" height="800px" viewBox="-2.4 -2.4 28.80 28.80" id="maps-location" data-name="Line Color" xmlns="http://www.w3.org/2000/svg" class="icon line-color">
<g id="SVGRepo_bgCarrier" stroke-width="0">
<rect x="-2.4" y="-2.4" width="28.80" height="28.80" rx="14.4" fill="#965927" strokewidth="0"/>
</g>
<g id="SVGRepo_tracerCarrier" stroke-linecap="round" stroke-linejoin="round"/>
<g id="SVGRepo_iconCarrier">
<path id="primary" d="M16,9h2.33a1,1,0,0,1,1,.84l1.67,10A1,1,0,0,1,20,21H4a1,1,0,0,1-1-1.16l1.67-10a1,1,0,0,1,1-.84H8" style="fill: none; stroke: #f3e2e2; stroke-linecap: round; stroke-linejoin: round; stroke-width: 2;"/>
<path id="secondary" d="M16,7A4,4,0,0,0,8,7c0,4,4,8,4,8S16,11,16,7Z" style="fill: none; stroke: #84f5aa; stroke-linecap: round; stroke-linejoin: round; stroke-width: 2;"/>
</g>
</svg>